<svg xmlns="http://www.w3.org/2000/svg" viewBox="0 0 75 75">
    <path fill="#fff" d="M43.24,50.55a1.11,1.11,0,0,0,1-1.13,1.12,1.12,0,0,0-1.12-1.12H25a1.2,1.2,0,0,0-1.12,1.12A1.13,1.13,0,0,0,25,50.55Z"/>
    <path fill="#fff" d="M43.24,36.71a1.11,1.11,0,0,0,1-1.12,1.13,1.13,0,0,0-1.12-1.13H25a1.21,1.21,0,0,0-1.12,1.13A1.12,1.12,0,0,0,25,36.71Z"/>
    <path fill="#fff" d="M49.88,55.27H25a1.13,1.13,0,0,0,0,2.25H50a1,1,0,0,0,1-1.12A1.13,1.13,0,0,0,49.88,55.27Z"/>
    <path fill="#fff" d="M49.88,41.44H25a1.13,1.13,0,0,0,0,2.25H50a1,1,0,0,0,1-1.13A1.12,1.12,0,0,0,49.88,41.44Z"/>
    <path fill="#fff" d="M49.88,27.6H25a1.13,1.13,0,0,0,0,2.25H50a1,1,0,0,0,1-1.13A1.12,1.12,0,0,0,49.88,27.6Z"/>
    <path fill="#fff" d="M37.5,0A37.5,37.5,0,1,0,75,37.5,37.5,37.5,0,0,0,37.5,0ZM27,16.8l.79-2.92h6.3A3.38,3.38,0,0,1,37.5,10.5a3.32,3.32,0,0,1,3.38,3.38h6.29l.68,2.92.68,2.92H26.25Zm30.6,45.79a1.9,1.9,0,0,1-1.92,1.91H19.28a2,2,0,0,1-1.92-1.91V18.71a2,2,0,0,1,1.92-1.91h5.39l-1.34,5.29H51.67L50.33,16.8h5.39a1.83,1.83,0,0,1,1.92,1.91Z"/>
</svg>