<svg xmlns="http://www.w3.org/2000/svg" viewBox="0 0 75 75">
    <path fill="#fff" d="M37.5,40.12c5.51,0,10.1-7.36,11.12-13.4,0,0,.28-5.34-3.56-5,0,0-13.36,2.65-15.29-3.24A12,12,0,0,0,26.28,26C27.05,32.19,31.78,40.12,37.5,40.12Z"/>
    <path fill="#fff" d="M37.5,0A37.5,37.5,0,1,0,75,37.5,37.5,37.5,0,0,0,37.5,0Zm0,11.31A12.94,12.94,0,0,1,50.44,24.25c0,7.15-5.79,17.9-12.94,17.9S24.56,31.4,24.56,24.25A12.94,12.94,0,0,1,37.5,11.31ZM48,63.69H27c-7.4,0-13-.38-13-8.11A15.52,15.52,0,0,1,23.3,41.35a8.92,8.92,0,0,0-1.14,4.2,1.94,1.94,0,0,0-.82.92,4.77,4.77,0,0,0-1.27.92,9.07,9.07,0,0,0-1.9,2.79,1.25,1.25,0,0,0-.07.83,10.93,10.93,0,0,0-.77,3.83,5.12,5.12,0,0,0,.45,2.74,2.1,2.1,0,0,0,1.49.94,1.09,1.09,0,0,0,.67.23h1.22a1.11,1.11,0,0,0,1.1-1.15v-.07a1.11,1.11,0,0,0-1.1-1H19.94a1.1,1.1,0,0,0-.4.08l-.13,0a6.13,6.13,0,0,1-.15-1.72,9.11,9.11,0,0,1,.59-3,1.27,1.27,0,0,0,.59-.6c.73-1.61,1.79-2.68,2.62-2.68s1.82,1,2.55,2.54a1.27,1.27,0,0,0,.51.54,9.38,9.38,0,0,1,.67,3.22,6.21,6.21,0,0,1-.14,1.72.24.24,0,0,1-.1,0,1.09,1.09,0,0,0-.36-.06H25a1.11,1.11,0,0,0-1.1,1.06v0A1.11,1.11,0,0,0,25,58.75h1.22a1,1,0,0,0,.7-.26c1.82-.4,1.82-2,1.82-3.65a11.4,11.4,0,0,0-.79-3.91,1.25,1.25,0,0,0-.06-.93,7.2,7.2,0,0,0-3.18-3.58,1.94,1.94,0,0,0-.78-.87,6.6,6.6,0,0,1,2.53-5.18,14.91,14.91,0,0,1,1.65-.25c.06,2.83,4.25,5.12,9.42,5.12s9.36-2.29,9.42-5.12c.44,0,.87.1,1.3.18,1.75,1.12,2.84,3.55,3,6a3.78,3.78,0,1,0,1.74,0,10.94,10.94,0,0,0-1.49-5A15.52,15.52,0,0,1,61,55.58C61,63.31,55.37,63.69,48,63.69Zm4.17-15.51a1.75,1.75,0,1,1-1.75,1.75A1.75,1.75,0,0,1,52.14,48.18Z"/>
</svg>