<svg xmlns="http://www.w3.org/2000/svg" viewBox="0 0 75 75">
    <path fill="#fff" d="M37.5,0A37.5,37.5,0,1,0,75,37.5,37.5,37.5,0,0,0,37.5,0ZM10.37,38.61,3.9,34.52l10.35-16.4,6.47,4.09ZM18,50a1.79,1.79,0,0,1-1.35-.3l-.08-.05a1.81,1.81,0,0,1-.43-2.5L18.35,44a1.79,1.79,0,0,1,1.48-.77,1.82,1.82,0,0,1,1,.28A1.79,1.79,0,0,1,21.4,46l-2.34,3.43A1.79,1.79,0,0,1,18,50Zm5.25,2.55-.32.47a1.84,1.84,0,0,1-2.59.47A1.85,1.85,0,0,1,19.87,51l.47-.7a1.27,1.27,0,0,0,.1-.12c.69-1,1.51-2.2,2.2-3.22a.36.36,0,0,0,0-.09l1.87-2.73a1.85,1.85,0,0,1,2.53-.5,1.85,1.85,0,0,1,.52,2.58l-.65.95,0,.05-3.51,5.1C23.34,52.36,23.3,52.46,23.24,52.56Zm5,1.92-.53.76a1.83,1.83,0,0,1-2.39.58,1.84,1.84,0,0,1-.81-2.37L28.24,48a1.8,1.8,0,0,1,1.21-.73l.27,0a1.8,1.8,0,0,1,1.15.41,1.86,1.86,0,0,1,.36,2.48l-1.06,1.54-.08.09-1.7,2.46A1.57,1.57,0,0,0,28.25,54.48Zm5.58-.1-1.71,2.45a1.49,1.49,0,0,1-1.8.53,1.53,1.53,0,0,1-.87-1,1.49,1.49,0,0,1,.07-1l1.93-2.8A1.48,1.48,0,0,1,32.4,52h.21a1.54,1.54,0,0,1,1,.34A1.5,1.5,0,0,1,33.83,54.38Zm22.84-8.06a2.2,2.2,0,0,1-3,.68l-1.59-1-.39-.23h0l-7.94-4.76a.78.78,0,1,0-.8,1.34l8.33,5,.57.33a1.53,1.53,0,0,1,.7,1,1.49,1.49,0,0,1-.21,1.18,2.51,2.51,0,0,1-3.29.82l-7.76-4.23a.78.78,0,0,0-.74,1.37l5.61,3.06,1.39.84a1.47,1.47,0,0,1,.67,1A1.5,1.5,0,0,1,48,53.89a2.29,2.29,0,0,1-3,.81l-6-3.05A.78.78,0,1,0,38.27,53l5.58,2.83A5.47,5.47,0,0,1,39.57,57l-5.14-.78.68-1a3.06,3.06,0,0,0-2.29-4.8,3.38,3.38,0,0,0-3.4-4.75,3.5,3.5,0,0,0,0-1.25,3.36,3.36,0,0,0-1.48-2.18,3.42,3.42,0,0,0-4.67.93l-.32.47a3.4,3.4,0,0,0-1.35-1.54,3.35,3.35,0,0,0-4.38.79L13,37.38,20.83,25l2.49,1.3a3,3,0,0,0,.85.28l3.66.58L24.38,31.6a2.8,2.8,0,0,0,.53,3.93,2.8,2.8,0,0,0,3,.25l8.53-4.46a1.24,1.24,0,0,1,1.25.06L56,43.28a2.2,2.2,0,0,1,.64,3Zm.77-3.9a3.94,3.94,0,0,0-.56-.45L38.52,30.07a2.84,2.84,0,0,0-2.82-.13L27.17,34.4a1.24,1.24,0,0,1-1.32-.11,1.19,1.19,0,0,1-.48-.82,1.21,1.21,0,0,1,.24-.92l4-5.22a4.86,4.86,0,0,1,3-1.84l4.71-.88a20.56,20.56,0,0,1,8,.09l5,1.06a2.81,2.81,0,0,0,1.62-.15l2.31-.93,8.21,13ZM54.22,21.71l6.53-4.18L71.1,33.92l-6.53,4.19Z"/>
</svg>