<svg xmlns="http://www.w3.org/2000/svg" viewBox="0 0 75 75">
    <polygon fill="#fff" points="51.14 21.67 23.86 21.67 19.24 31.25 55.84 31.25 51.14 21.67"/>
    <path fill="#fff" d="M13.7,39.56V41.4a1.77,1.77,0,0,0,1.76,1.77h8.23a1.52,1.52,0,0,0,1.51-1.6v-.92c-1.68-1.6-6.21-2.35-9.82-2.77A1.62,1.62,0,0,0,13.7,39.56Z"/>
    <path fill="#fff" d="M37.5,0A37.5,37.5,0,1,0,75,37.5,37.5,37.5,0,0,0,37.5,0ZM60.88,33.43l3.61,4.11c.09,5.46.17,10.83.17,16.29a2,2,0,0,1-2,2H57a2,2,0,0,1-2-2V51H20v2.85a2,2,0,0,1-2,2H12.35a2,2,0,0,1-2-2c0-5.46.08-10.83.17-16.29l3.69-4.11c-2.43-.51-4.7-1.26-4.7-2.1V28.56h7.56l4.78-9.4H53.16l4.78,9.4H65.5v2.77C65.5,32.17,63.32,32.92,60.88,33.43Z"/>
    <path fill="#fff" d="M49.8,40.65v.92a1.54,1.54,0,0,0,1.6,1.6h8.14a1.85,1.85,0,0,0,1.85-1.77V39.56a1.63,1.63,0,0,0-1.68-1.68C56.1,38.3,51.56,39.05,49.8,40.65Z"/>
</svg>