<svg xmlns="http://www.w3.org/2000/svg" viewBox="0 0 75 75">
    <path fill="#fff" d="M37.5,0A37.5,37.5,0,1,0,75,37.5,37.5,37.5,0,0,0,37.5,0Zm4.31,63.52a6.26,6.26,0,0,1-4.55,1.86,6.36,6.36,0,0,1-4.55-10.83,6.11,6.11,0,0,1,4.48-1.84,6.38,6.38,0,0,1,4.6,1.84A6,6,0,0,1,43.69,59,6.12,6.12,0,0,1,41.81,63.52ZM54.59,26.94a17.24,17.24,0,0,1-2.21,4.33,33.15,33.15,0,0,1-4.25,4.36,30,30,0,0,0-4,4.12A11,11,0,0,0,42.73,43a25.17,25.17,0,0,0-.7,5.54H32l0-1.66a21.92,21.92,0,0,1,1.81-9,22.37,22.37,0,0,1,5.88-7.6,30.52,30.52,0,0,0,4.73-4.73,5.5,5.5,0,0,0,.82-3,5,5,0,0,0-2-4,8,8,0,0,0-5.31-1.64,7.93,7.93,0,0,0-5.58,2A6.82,6.82,0,0,0,30.13,24H20.44a15.22,15.22,0,0,1,4.88-11.77q5-4.65,13-4.64A18.9,18.9,0,0,1,47.24,9.5,14.85,14.85,0,0,1,53.1,15a14.52,14.52,0,0,1,2.2,7.62A13.39,13.39,0,0,1,54.59,26.94Z"/>
</svg>