<svg xmlns="http://www.w3.org/2000/svg" viewBox="0 0 75 75">
    <path fill="#fff" d="M37.5,0A37.5,37.5,0,1,0,75,37.5,37.5,37.5,0,0,0,37.5,0ZM14.38,24.21v-7.6H58.61v9.21H56v-3a3.36,3.36,0,0,0-.24-1.26,2.91,2.91,0,0,1-1.93.69A2.52,2.52,0,0,1,51.09,20a2,2,0,0,1,.45-1.22l-.44,0H21.89a5.7,5.7,0,0,0-1.1.11A1.93,1.93,0,0,1,21.18,20a2.51,2.51,0,0,1-2.7,2.25,3.07,3.07,0,0,1-1.34-.3,3.15,3.15,0,0,0-.12.87v3H14.38Zm28.45,1.61H31.55a5.85,5.85,0,0,1,11.28,0Zm21,28.38a4.18,4.18,0,0,1-4.17,4.19H12.74A4.18,4.18,0,0,1,8.57,54.2V26a4.17,4.17,0,0,1,4.17-4.18h1.64v2.38H13c-1.33,0-2.41.72-2.41,1.61s1.08,1.62,2.41,1.62H63.83v6a4.16,4.16,0,0,0-.79-.09H46.13a3.55,3.55,0,0,0-1.8.5,3.51,3.51,0,0,0-1.7,3v6.57a3.51,3.51,0,0,0,3.5,3.52H63a3.48,3.48,0,0,0,.79-.09Zm.52-9a2.35,2.35,0,0,1-.6.07H47.57a2.68,2.68,0,0,1-2.68-2.69v-5a2.7,2.7,0,0,1,2.68-2.69H63.75a2.9,2.9,0,0,1,.6.07,2.7,2.7,0,0,1,2.08,2.62v5A2.68,2.68,0,0,1,64.35,45.24Z"/>
    <path fill="#fff" d="M50.35,38a2.15,2.15,0,1,0,2.14,2.15A2.14,2.14,0,0,0,50.35,38Z"/>
</svg>